<svg width="256" height="256" viewBox="0 0 256 256" fill="none" xmlns="http://www.w3.org/2000/svg">
<g clip-path="url(#clip0_2400_13580)">
<rect width="256" height="256" rx="40" fill="black"/>
<rect x="115.572" y="89.8896" width="25.6828" height="25.6828" fill="#F9F4EB"/>
<rect x="89.8896" y="89.8896" width="25.6828" height="25.6828" fill="#F9F4EB"/>
<rect x="115.572" y="64.2068" width="25.6828" height="25.6828" fill="#F9F4EB"/>
<rect x="115.572" y="115.573" width="25.6828" height="25.6828" fill="#F9F4EB"/>
<rect x="141.255" y="115.573" width="25.6828" height="25.6828" fill="#F9F4EB"/>
<rect x="141.255" y="89.8896" width="25.6828" height="25.6828" fill="#F9F4EB"/>
<rect x="166.938" y="115.573" width="25.6828" height="25.6828" fill="#F9F4EB"/>
<rect x="115.572" y="141.255" width="25.6828" height="25.6828" fill="#F9F4EB"/>
<rect x="141.255" y="141.255" width="25.6828" height="25.6828" fill="#F9F4EB"/>
<rect x="115.572" y="166.938" width="25.6828" height="25.6828" fill="#F9F4EB"/>
<rect x="89.8896" y="115.573" width="25.6828" height="25.6828" fill="#F9F4EB"/>
<rect x="89.8896" y="141.255" width="25.6828" height="25.6828" fill="#F9F4EB"/>
<rect x="64.2069" y="115.573" width="25.6828" height="25.6828" fill="#F9F4EB"/>
</g>
<defs>
<clipPath id="clip0_2400_13580">
<rect width="256" height="256" rx="40" fill="white"/>
</clipPath>
</defs>
</svg>
