<svg viewBox="0 0 180 181" fill="none" xmlns="http://www.w3.org/2000/svg">
<path d="M123.158 67.897C115.789 67.896 112.105 71.5812 112.105 78.9496V112.108C112.105 121.317 106.579 126.844 93.6842 126.844C80.7895 126.844 77.1053 119.475 75.2632 112.108L64.2105 71.5812C63.4622 69.292 61.692 67.896 58.6842 67.896C55.6764 67.896 53.8947 69.296 53.1579 71.5812L36.5789 126.844H20L40.2632 66.0549C40.2632 66.0549 44.2352 53.1602 58.6842 53.1602C73.4211 53.1602 77.1053 66.0549 77.1053 66.0549L88.7336 108.422L88.7393 108.439C89.2008 109.766 90.0152 112.108 93.6842 112.108C97.3684 112.108 97.3684 110.264 97.3684 108.422V77.1075C97.3684 66.0539 102.895 53.1591 123.158 53.1602H141.579C152.632 53.1602 160 60.5276 160 71.5812V126.844H145.263V73.4233C145.263 69.7381 143.421 67.896 139.737 67.897H123.158Z" fill="#4B4B4B"/>
</svg>
