<svg width="32" height="32" viewBox="0 0 32 32" fill="none" xmlns="http://www.w3.org/2000/svg">
<g clip-path="url(#clip0_2400_13582)">
<rect width="32" height="32" rx="3" fill="black"/>
<rect x="14.4465" y="11.2362" width="3.21035" height="3.21035" fill="#F9F4EB"/>
<rect x="11.2362" y="11.2362" width="3.21035" height="3.21035" fill="#F9F4EB"/>
<rect x="14.4465" y="8.02588" width="3.21035" height="3.21035" fill="#F9F4EB"/>
<rect x="14.4465" y="14.4465" width="3.21035" height="3.21035" fill="#F9F4EB"/>
<rect x="17.6569" y="14.4465" width="3.21035" height="3.21035" fill="#F9F4EB"/>
<rect x="17.6569" y="11.2362" width="3.21035" height="3.21035" fill="#F9F4EB"/>
<rect x="20.8672" y="14.4465" width="3.21035" height="3.21035" fill="#F9F4EB"/>
<rect x="14.4465" y="17.6569" width="3.21035" height="3.21035" fill="#F9F4EB"/>
<rect x="17.6569" y="17.6569" width="3.21035" height="3.21035" fill="#F9F4EB"/>
<rect x="14.4465" y="20.8672" width="3.21035" height="3.21035" fill="#F9F4EB"/>
<rect x="11.2362" y="14.4465" width="3.21035" height="3.21035" fill="#F9F4EB"/>
<rect x="11.2362" y="17.6569" width="3.21035" height="3.21035" fill="#F9F4EB"/>
<rect x="8.02588" y="14.4465" width="3.21035" height="3.21035" fill="#F9F4EB"/>
</g>
<defs>
<clipPath id="clip0_2400_13582">
<rect width="32" height="32" rx="3" fill="white"/>
</clipPath>
</defs>
</svg>
